<svg xmlns="http://www.w3.org/2000/svg" width="209" height="303" viewBox="0 0 167.184 242.862" version="1.0"><g fill="none" stroke="#17067a" stroke-width="1.318" stroke-linecap="round" stroke-linejoin="round"><path d="M166.934 235.743c0 3.775-3.086 6.87-6.87 6.87H7.214c-3.775 0-6.86-3.095-6.86-6.87V7.318c0-3.78 3.085-6.87 6.86-6.87h152.848c3.785 0 6.87 3.09 6.87 6.87v228.425h0z" fill="#fff" stroke="#000" stroke-width=".5" stroke-linecap="butt" stroke-linejoin="miter" transform="matrix(1.0001 0 0 .99809 -.008 .232)"/><path d="M7.64 2.098c-3.214 0-5.802 2.511-5.802 5.632v227.487c0 3.12 2.588 5.631 5.801 5.631h152.09c3.214 0 5.8-2.51 5.8-5.63V7.73c0-3.12-2.586-5.632-5.8-5.632H7.638z" fill="#fff" fill-rule="evenodd" stroke="none"/><path d="M7.647 1.87c-3.213 0-5.801 2.515-5.801 5.642v227.924c0 3.126 2.588 5.641 5.801 5.641h152.074c3.215 0 5.8-2.515 5.8-5.641V7.512c0-3.127-2.585-5.643-5.8-5.643H7.647h0z" stroke-width="2.852" stroke-linecap="butt" stroke-linejoin="miter" stroke-miterlimit="10" transform="matrix(1.0001 0 0 .99809 -.008 .232)"/><path d="M9.282 7.624c-.81 0-1.46.632-1.46 1.417v224.865c0 .785.65 1.418 1.46 1.418h148.434c.81 0 1.462-.633 1.462-1.418V9.041c0-.785-.652-1.417-1.462-1.417H9.282z" fill="#fff" fill-rule="evenodd" stroke="none"/><path d="M9.29 7.405c-.81 0-1.461.634-1.461 1.42v225.297c0 .786.65 1.42 1.46 1.42h148.42c.81 0 1.462-.634 1.462-1.42V8.826c0-.787-.652-1.42-1.462-1.42H9.289h0z" stroke-width="2.678" stroke-linecap="butt" stroke-linejoin="miter" stroke-miterlimit="10" transform="matrix(1.0001 0 0 .99809 -.008 .232)"/><path d="M38.653 37.275a.692.692 0 00-.704.684v167.748c0 .38.314.684.704.684h88.21a.691.691 0 00.704-.684V37.959a.691.691 0 00-.704-.684h-88.21z" fill="#313390" fill-rule="evenodd" stroke="none"/><path d="M38.657 37.114a.693.693 0 00-.704.685v168.07c0 .38.314.685.704.685h88.201a.692.692 0 00.704-.686V37.798a.692.692 0 00-.704-.684h-88.2 0z" stroke-width="1.642" stroke-linecap="butt" stroke-linejoin="miter" stroke-miterlimit="10" transform="matrix(1.0001 0 0 .99809 -.008 .232)"/><path d="M52.617 43.224c-4.62 0-8.34 3.612-8.34 8.097v140.305c0 4.486 3.72 8.097 8.34 8.097h59.913c4.62 0 8.34-3.611 8.34-8.097V51.321c0-4.485-3.72-8.097-8.34-8.097H52.617z" fill="#fff" fill-rule="evenodd" stroke="none"/><path d="M52.62 43.074c-4.62 0-8.34 3.619-8.34 8.113V191.76c0 4.494 3.72 8.112 8.34 8.112h59.907c4.62 0 8.34-3.618 8.34-8.112V51.187c0-4.494-3.72-8.113-8.34-8.113H52.62h0z" stroke-width="2.065" stroke-linecap="butt" stroke-miterlimit="10" transform="matrix(1.0001 0 0 .99809 -.008 .232)"/><path d="M53.544 49.674c-1.554 0-2.806 1.215-2.806 2.724v138.15c0 1.51 1.252 2.724 2.806 2.724h57.687c1.556 0 2.81-1.214 2.81-2.724V52.398c0-1.509-1.254-2.724-2.81-2.724H53.544z" fill="#313390" fill-rule="evenodd" stroke="none"/><path d="M53.547 49.537c-1.554 0-2.805 1.217-2.805 2.729V190.68c0 1.512 1.251 2.73 2.805 2.73h57.682c1.555 0 2.808-1.218 2.808-2.73V52.266c0-1.512-1.253-2.73-2.808-2.73H53.547z" stroke-width="1.798" stroke-linecap="butt" stroke-miterlimit="10" transform="matrix(1.0001 0 0 .99809 -.008 .232)"/><path d="M9.407 9.247h6.663l-6.599 6.39-.064-6.39z" fill="#17067a" fill-rule="evenodd" stroke="none"/><path d="M9.415 9.032h6.662L9.48 15.435l-.064-6.403h0z" stroke-width=".864" stroke-linecap="butt" stroke-linejoin="miter" stroke-miterlimit="10" transform="matrix(1.0001 0 0 .99809 -.008 .232)"/><path d="M157.49 9.33h-6.663l6.598 6.39.065-6.39z" fill="#17067a" fill-rule="evenodd" stroke="none"/><path d="M157.482 9.115h-6.662l6.598 6.403.064-6.403h0z" stroke-width=".864" stroke-linecap="butt" stroke-linejoin="miter" stroke-miterlimit="10" transform="matrix(1.0001 0 0 .99809 -.008 .232)"/><path d="M157.61 233.902h-6.664l6.6-6.389.064 6.39z" fill="#17067a" fill-rule="evenodd" stroke="none"/><path d="M157.603 234.118h-6.664l6.6-6.401.064 6.401h0z" stroke-width=".864" stroke-linecap="butt" stroke-linejoin="miter" stroke-miterlimit="10" transform="matrix(1.0001 0 0 .99809 -.008 .232)"/><path d="M9.402 233.87h6.663l-6.598-6.39-.065 6.39z" fill="#17067a" fill-rule="evenodd" stroke="none"/><path d="M9.41 234.085h6.662l-6.598-6.402-.065 6.402h0z" stroke-width=".864" stroke-linecap="butt" stroke-linejoin="miter" stroke-miterlimit="10" transform="matrix(1.0001 0 0 .99809 -.008 .232)"/><path d="M11.959 130.614v6.122l22.43-11.447v-6.273l-22.43 11.598z" fill="#313390" fill-rule="evenodd" stroke="none"/><path d="M11.966 130.632v6.134l22.428-11.47v-6.285l-22.428 11.62h0z" stroke-miterlimit="10" transform="matrix(1.0001 0 0 .99809 -.008 .232)"/><path d="M12.073 142.192v6.122l22.43-11.45v-6.271l-22.43 11.599z" fill="#313390" fill-rule="evenodd" stroke="none"/><path d="M12.08 142.231v6.134l22.428-11.471v-6.284L12.08 142.231h0z" stroke-miterlimit="10" transform="matrix(1.0001 0 0 .99809 -.008 .232)"/><path d="M11.847 136.766v-6.122l22.43 11.45v6.271l-22.43-11.599z" fill="#fff" fill-rule="evenodd" stroke="none"/><path d="M11.854 136.796v-6.134l22.428 11.47v6.285l-22.428-11.621h0z" stroke-miterlimit="10" transform="matrix(1.0001 0 0 .99809 -.008 .232)"/><path d="M12.123 118.878V125l22.43-11.45v-6.27l-22.43 11.598z" fill="#313390" fill-rule="evenodd" stroke="none"/><path d="M12.13 118.873v6.134l22.428-11.472v-6.283L12.13 118.873h0z" stroke-miterlimit="10" transform="matrix(1.0001 0 0 .99809 -.008 .232)"/><path d="M12.016 125.251v-6.12l22.43 11.448v6.272l-22.43-11.6z" fill="#fff" fill-rule="evenodd" stroke="none"/><path d="M12.023 125.259v-6.133l22.429 11.47v6.285l-22.43-11.622h0z" stroke-miterlimit="10" transform="matrix(1.0001 0 0 .99809 -.008 .232)"/><path d="M12.009 107.3v6.123l22.43-11.449v-6.272L12.009 107.3z" fill="#313390" fill-rule="evenodd" stroke="none"/><path d="M12.016 107.273v6.134l22.428-11.47v-6.285l-22.428 11.621h0z" stroke-miterlimit="10" transform="matrix(1.0001 0 0 .99809 -.008 .232)"/><path d="M11.897 113.452v-6.121l22.43 11.45v6.27l-22.43-11.599z" fill="#fff" fill-rule="evenodd" stroke="none"/><path d="M11.904 113.437v-6.133l22.428 11.471v6.283l-22.428-11.621h0z" stroke-miterlimit="10" transform="matrix(1.0001 0 0 .99809 -.008 .232)"/><path d="M12.066 101.938v-6.122l22.43 11.45v6.27l-22.43-11.598z" fill="#fff" fill-rule="evenodd" stroke="none"/><path d="M12.073 101.9v-6.133l22.428 11.472v6.282l-22.428-11.62h0z" stroke-miterlimit="10" transform="matrix(1.0001 0 0 .99809 -.008 .232)"/><path d="M12.104 153.874v6.121l22.43-11.447v-6.273l-22.43 11.6z" fill="#313390" fill-rule="evenodd" stroke="none"/><path d="M12.11 153.937v6.132L34.54 148.6v-6.284L12.11 153.937z" stroke-miterlimit="10" transform="matrix(1.0001 0 0 .99809 -.008 .232)"/><path d="M11.878 148.448v-6.12l22.43 11.448v6.273l-22.43-11.6z" fill="#fff" fill-rule="evenodd" stroke="none"/><path d="M11.885 148.5v-6.133l22.428 11.47v6.286L11.884 148.5z" stroke-miterlimit="10" transform="matrix(1.0001 0 0 .99809 -.008 .232)"/><path d="M11.876 72.28v6.12l22.43-11.448V60.68l-22.43 11.6z" fill="#313390" fill-rule="evenodd" stroke="none"/><path d="M11.883 72.185v6.133l22.428-11.47v-6.284L11.883 72.185z" stroke-miterlimit="10" transform="matrix(1.0001 0 0 .99809 -.008 .232)"/><path d="M11.99 83.855v6.124l22.43-11.45v-6.273l-22.43 11.6z" fill="#313390" fill-rule="evenodd" stroke="none"/><path d="M11.997 83.783v6.135l22.429-11.471v-6.285L11.997 83.783z" stroke-miterlimit="10" transform="matrix(1.0001 0 0 .99809 -.008 .232)"/><path d="M11.764 78.431V72.31l22.431 11.448v6.273L11.765 78.43z" fill="#fff" fill-rule="evenodd" stroke="none"/><path d="M11.771 78.349v-6.134l22.43 11.47v6.285L11.77 78.349z" stroke-miterlimit="10" transform="matrix(1.0001 0 0 .99809 -.008 .232)"/><path d="M12.04 60.541v6.124l22.43-11.45v-6.273l-22.43 11.6z" fill="#313390" fill-rule="evenodd" stroke="none"/><path d="M12.048 60.424v6.136l22.428-11.473v-6.284L12.048 60.424z" stroke-miterlimit="10" transform="matrix(1.0001 0 0 .99809 -.008 .232)"/><path d="M11.933 66.917v-6.122l22.43 11.448v6.272l-22.43-11.598z" fill="#fff" fill-rule="evenodd" stroke="none"/><path d="M11.94 66.812v-6.133l22.429 11.47v6.284l-22.43-11.621z" stroke-miterlimit="10" transform="matrix(1.0001 0 0 .99809 -.008 .232)"/><path d="M11.926 48.965v6.122l22.43-11.45v-6.27l-22.43 11.598z" fill="#313390" fill-rule="evenodd" stroke="none"/><path d="M11.933 48.826v6.133L34.36 43.49v-6.284L11.933 48.826z" stroke-miterlimit="10" transform="matrix(1.0001 0 0 .99809 -.008 .232)"/><path d="M11.815 55.117v-6.122l22.43 11.448v6.273l-22.43-11.6z" fill="#fff" fill-rule="evenodd" stroke="none"/><path d="M11.822 54.99v-6.134l22.428 11.47v6.285L11.822 54.99z" stroke-miterlimit="10" transform="matrix(1.0001 0 0 .99809 -.008 .232)"/><path d="M11.983 43.602v-6.12l22.43 11.447v6.272l-22.43-11.599z" fill="#fff" fill-rule="evenodd" stroke="none"/><path d="M11.99 43.453V37.32l22.428 11.47v6.284L11.99 43.454z" stroke-miterlimit="10" transform="matrix(1.0001 0 0 .99809 -.008 .232)"/><path d="M12.022 95.539v6.121l22.43-11.449v-6.27l-22.43 11.598z" fill="#313390" fill-rule="evenodd" stroke="none"/><path d="M12.029 95.49v6.133L34.457 90.15v-6.283L12.029 95.49z" stroke-miterlimit="10" transform="matrix(1.0001 0 0 .99809 -.008 .232)"/><path d="M11.796 90.113v-6.122l22.43 11.45v6.271l-22.43-11.599z" fill="#fff" fill-rule="evenodd" stroke="none"/><path d="M11.803 90.053V83.92L34.23 95.391v6.283l-22.427-11.62z" stroke-miterlimit="10" transform="matrix(1.0001 0 0 .99809 -.008 .232)"/><path d="M11.959 188.79v6.123l22.43-11.45v-6.274l-22.43 11.6z" fill="#313390" fill-rule="evenodd" stroke="none"/><path d="M11.966 188.919v6.135l22.428-11.473v-6.285l-22.428 11.623h0z" stroke-miterlimit="10" transform="matrix(1.0001 0 0 .99809 -.008 .232)"/><path d="M12.073 200.367v6.121l22.43-11.448v-6.272l-22.43 11.6z" fill="#313390" fill-rule="evenodd" stroke="none"/><path d="M12.08 200.519v6.132l22.428-11.47v-6.284L12.08 200.52h0z" stroke-miterlimit="10" transform="matrix(1.0001 0 0 .99809 -.008 .232)"/><path d="M11.847 194.943v-6.124l22.43 11.45v6.273l-22.43-11.599z" fill="#fff" fill-rule="evenodd" stroke="none"/><path d="M11.854 195.084v-6.136l22.428 11.472v6.285l-22.428-11.621z" stroke-miterlimit="10" transform="matrix(1.0001 0 0 .99809 -.008 .232)"/><path d="M12.123 177.053v6.12l22.43-11.448v-6.271l-22.43 11.599z" fill="#313390" fill-rule="evenodd" stroke="none"/><path d="M12.13 177.16v6.132l22.428-11.47v-6.284L12.13 177.16h0z" stroke-miterlimit="10" transform="matrix(1.0001 0 0 .99809 -.008 .232)"/><path d="M12.016 183.427v-6.123l22.43 11.45v6.273l-22.43-11.6z" fill="#fff" fill-rule="evenodd" stroke="none"/><path d="M12.023 183.546v-6.135l22.429 11.473v6.284l-22.43-11.622h0z" stroke-miterlimit="10" transform="matrix(1.0001 0 0 .99809 -.008 .232)"/><path d="M12.009 165.477v6.121l22.43-11.45v-6.27l-22.43 11.6z" fill="#313390" fill-rule="evenodd" stroke="none"/><path d="M12.016 165.562v6.132l22.428-11.472v-6.282l-22.428 11.622z" stroke-miterlimit="10" transform="matrix(1.0001 0 0 .99809 -.008 .232)"/><path d="M11.897 171.628v-6.122l22.43 11.449v6.271l-22.43-11.598z" fill="#fff" fill-rule="evenodd" stroke="none"/><path d="M11.904 171.725v-6.134l22.428 11.47v6.284l-22.428-11.62h0z" stroke-miterlimit="10" transform="matrix(1.0001 0 0 .99809 -.008 .232)"/><path d="M12.066 160.113v-6.122l22.43 11.449v6.272l-22.43-11.599z" fill="#fff" fill-rule="evenodd" stroke="none"/><path d="M12.073 160.188v-6.134l22.428 11.47v6.285l-22.428-11.621z" stroke-miterlimit="10" transform="matrix(1.0001 0 0 .99809 -.008 .232)"/><path d="M131.943 113.337v-6.124l22.43 11.456v6.274l-22.43-11.606z" fill="#313390" fill-rule="evenodd" stroke="none"/><path d="M131.938 113.322v-6.136l22.427 11.478v6.286l-22.427-11.628h0z" stroke-miterlimit="10" transform="matrix(1.0001 0 0 .99809 -.008 .232)"/><path d="M132.056 101.754v-6.125l22.431 11.456v6.276l-22.431-11.607z" fill="#313390" fill-rule="evenodd" stroke="none"/><path d="M132.05 101.716v-6.137l22.43 11.479v6.287l-22.43-11.63z" stroke-miterlimit="10" transform="matrix(1.0001 0 0 .99809 -.008 .232)"/><path d="M131.83 107.183v6.125l22.43-11.455v-6.276l-22.43 11.606z" fill="#fff" fill-rule="evenodd" stroke="none"/><path d="M131.826 107.156v6.136l22.427-11.477v-6.288l-22.427 11.629h0z" stroke-miterlimit="10" transform="matrix(1.0001 0 0 .99809 -.008 .232)"/><path d="M132.104 125.082v-6.126l22.433 11.455v6.278l-22.433-11.607z" fill="#313390" fill-rule="evenodd" stroke="none"/><path d="M132.1 125.089v-6.138l22.43 11.478v6.289l-22.43-11.63z" stroke-miterlimit="10" transform="matrix(1.0001 0 0 .99809 -.008 .232)"/><path d="M131.999 118.704v6.124l22.43-11.454v-6.276l-22.43 11.606z" fill="#fff" fill-rule="evenodd" stroke="none"/><path d="M131.994 118.699v6.136l22.428-11.477v-6.287l-22.428 11.628h0z" stroke-miterlimit="10" transform="matrix(1.0001 0 0 .99809 -.008 .232)"/><path d="M131.993 136.665v-6.125l22.43 11.457v6.275l-22.43-11.607z" fill="#313390" fill-rule="evenodd" stroke="none"/><path d="M131.988 136.694v-6.136l22.428 11.478v6.287l-22.428-11.629h0z" stroke-miterlimit="10" transform="matrix(1.0001 0 0 .99809 -.008 .232)"/><path d="M131.88 130.51v6.125l22.432-11.454v-6.276L131.88 130.51z" fill="#fff" fill-rule="evenodd" stroke="none"/><path d="M131.875 130.528v6.136l22.43-11.476V118.9l-22.43 11.628z" stroke-miterlimit="10" transform="matrix(1.0001 0 0 .99809 -.008 .232)"/><path d="M132.05 142.032v6.126l22.43-11.456v-6.277l-22.43 11.607z" fill="#fff" fill-rule="evenodd" stroke="none"/><path d="M132.045 142.071v6.138l22.428-11.478v-6.289l-22.428 11.63z" stroke-miterlimit="10" transform="matrix(1.0001 0 0 .99809 -.008 .232)"/><path d="M132.089 90.065v-6.126l22.43 11.456v6.275l-22.43-11.605z" fill="#313390" fill-rule="evenodd" stroke="none"/><path d="M132.084 90.005v-6.138l22.428 11.478v6.287l-22.428-11.627h0z" stroke-miterlimit="10" transform="matrix(1.0001 0 0 .99809 -.008 .232)"/><path d="M131.86 95.493v6.126l22.432-11.457v-6.275L131.86 95.493z" fill="#fff" fill-rule="evenodd" stroke="none"/><path d="M131.855 95.443v6.138l22.43-11.478v-6.288l-22.43 11.628z" stroke-miterlimit="10" transform="matrix(1.0001 0 0 .99809 -.008 .232)"/><path d="M131.858 171.71v-6.128l22.432 11.457v6.275l-22.432-11.605z" fill="#313390" fill-rule="evenodd" stroke="none"/><path d="M131.854 171.806v-6.139l22.43 11.479v6.287l-22.43-11.627z" stroke-miterlimit="10" transform="matrix(1.0001 0 0 .99809 -.008 .232)"/><path d="M131.974 160.126v-6.127l22.43 11.456v6.276l-22.43-11.605z" fill="#313390" fill-rule="evenodd" stroke="none"/><path d="M131.969 160.2v-6.138l22.427 11.477v6.288L131.97 160.2z" stroke-miterlimit="10" transform="matrix(1.0001 0 0 .99809 -.008 .232)"/><path d="M131.749 165.553v6.126l22.43-11.456v-6.276l-22.43 11.606z" fill="#fff" fill-rule="evenodd" stroke="none"/><path d="M131.744 165.638v6.137l22.428-11.477v-6.288l-22.428 11.628z" stroke-miterlimit="10" transform="matrix(1.0001 0 0 .99809 -.008 .232)"/><path d="M132.022 183.452v-6.125l22.431 11.455v6.277l-22.43-11.607z" fill="#313390" fill-rule="evenodd" stroke="none"/><path d="M132.018 183.571v-6.136l22.428 11.476v6.29l-22.428-11.63h0z" stroke-miterlimit="10" transform="matrix(1.0001 0 0 .99809 -.008 .232)"/><path d="M131.917 177.074v6.125l22.43-11.455v-6.277l-22.43 11.607z" fill="#fff" fill-rule="evenodd" stroke="none"/><path d="M131.912 177.18v6.137l22.428-11.476v-6.29l-22.428 11.63h0z" stroke-miterlimit="10" transform="matrix(1.0001 0 0 .99809 -.008 .232)"/><path d="M131.91 195.038v-6.125l22.43 11.454v6.275l-22.43-11.604z" fill="#313390" fill-rule="evenodd" stroke="none"/><path d="M131.904 195.179v-6.137l22.429 11.477v6.287l-22.429-11.627h0z" stroke-miterlimit="10" transform="matrix(1.0001 0 0 .99809 -.008 .232)"/><path d="M131.798 188.882v6.124l22.43-11.456v-6.275l-22.43 11.607z" fill="#fff" fill-rule="evenodd" stroke="none"/><path d="M131.793 189.012v6.135l22.428-11.478v-6.287l-22.428 11.63z" stroke-miterlimit="10" transform="matrix(1.0001 0 0 .99809 -.008 .232)"/><path d="M131.967 200.404v6.125l22.43-11.455v-6.276l-22.43 11.606z" fill="#fff" fill-rule="evenodd" stroke="none"/><path d="M131.962 200.556v6.136l22.428-11.477v-6.288l-22.428 11.629h0z" stroke-miterlimit="10" transform="matrix(1.0001 0 0 .99809 -.008 .232)"/><path d="M132.005 148.435v-6.124l22.43 11.454v6.275l-22.43-11.605z" fill="#313390" fill-rule="evenodd" stroke="none"/><path d="M132 148.486v-6.135l22.428 11.476v6.287L132 148.486z" stroke-miterlimit="10" transform="matrix(1.0001 0 0 .99809 -.008 .232)"/><path d="M131.78 153.865v6.125l22.428-11.457v-6.275l-22.429 11.607z" fill="#fff" fill-rule="evenodd" stroke="none"/><path d="M131.774 153.927v6.136l22.427-11.478v-6.287l-22.427 11.629h0z" stroke-miterlimit="10" transform="matrix(1.0001 0 0 .99809 -.008 .232)"/><path d="M131.943 55.129v-6.127l22.43 11.456v6.276l-22.43-11.605z" fill="#313390" fill-rule="evenodd" stroke="none"/><path d="M131.938 55.001v-6.138l22.427 11.478v6.288L131.938 55h0z" stroke-miterlimit="10" transform="matrix(1.0001 0 0 .99809 -.008 .232)"/><path d="M132.056 43.544v-6.126l22.431 11.456v6.276l-22.431-11.606z" fill="#313390" fill-rule="evenodd" stroke="none"/><path d="M132.05 43.395v-6.138l22.43 11.478v6.288l-22.43-11.628h0z" stroke-miterlimit="10" transform="matrix(1.0001 0 0 .99809 -.008 .232)"/><path d="M131.83 48.972v6.126l22.43-11.456v-6.276l-22.43 11.606z" fill="#fff" fill-rule="evenodd" stroke="none"/><path d="M131.826 48.833v6.138l22.427-11.478v-6.288l-22.427 11.628h0z" stroke-miterlimit="10" transform="matrix(1.0001 0 0 .99809 -.008 .232)"/><path d="M132.104 66.872v-6.125l22.433 11.456v6.274l-22.433-11.605z" fill="#313390" fill-rule="evenodd" stroke="none"/><path d="M132.1 66.767v-6.136l22.43 11.478v6.286L132.1 66.767h0z" stroke-miterlimit="10" transform="matrix(1.0001 0 0 .99809 -.008 .232)"/><path d="M131.999 60.495v6.125l22.43-11.457v-6.275l-22.43 11.607z" fill="#fff" fill-rule="evenodd" stroke="none"/><path d="M131.994 60.378v6.137l22.428-11.479V48.75l-22.428 11.629h0z" stroke-miterlimit="10" transform="matrix(1.0001 0 0 .99809 -.008 .232)"/><path d="M131.993 78.456V72.33l22.43 11.455v6.276l-22.43-11.606z" fill="#313390" fill-rule="evenodd" stroke="none"/><path d="M131.988 78.374v-6.137l22.428 11.476v6.288l-22.428-11.627h0z" stroke-miterlimit="10" transform="matrix(1.0001 0 0 .99809 -.008 .232)"/><path d="M131.88 72.3v6.126l22.432-11.456v-6.276L131.88 72.3z" fill="#fff" fill-rule="evenodd" stroke="none"/><path d="M131.875 72.207v6.137l22.43-11.479v-6.288l-22.43 11.63z" stroke-miterlimit="10" transform="matrix(1.0001 0 0 .99809 -.008 .232)"/><path d="M132.05 83.822v6.126l22.43-11.456v-6.275l-22.43 11.605z" fill="#fff" fill-rule="evenodd" stroke="none"/><path d="M132.045 83.75v6.137l22.428-11.477v-6.287L132.045 83.75z" stroke-miterlimit="10" transform="matrix(1.0001 0 0 .99809 -.008 .232)"/><path d="M68.546 11.72h-6.29l11.766 21.774h6.446L68.546 11.72z" fill="#313390" fill-rule="evenodd" stroke="none"/><path d="M68.547 11.51h-6.29l11.765 21.815h6.446L68.548 11.51z" stroke-miterlimit="10" transform="matrix(1.0001 0 0 .99809 -.008 .232)"/><path d="M56.65 11.832h-6.291l11.765 21.773h6.445L56.65 11.832z" fill="#313390" fill-rule="evenodd" stroke="none"/><path d="M56.652 11.622h-6.29l11.764 21.815h6.445L56.65 11.622z" stroke-miterlimit="10" transform="matrix(1.0001 0 0 .99809 -.008 .232)"/><path d="M62.225 11.612h6.29L56.75 33.386h-6.445l11.92-21.774z" fill="#fff" fill-rule="evenodd" stroke="none"/><path d="M62.227 11.402h6.29L56.753 33.217h-6.444l11.918-21.815z" stroke-miterlimit="10" transform="matrix(1.0001 0 0 .99809 -.008 .232)"/><path d="M80.609 11.88h-6.292l11.765 21.773h6.446L80.608 11.88z" fill="#313390" fill-rule="evenodd" stroke="none"/><path d="M80.609 11.67h-6.291l11.764 21.815h6.445L80.61 11.669h0z" stroke-miterlimit="10" transform="matrix(1.0001 0 0 .99809 -.008 .232)"/><path d="M74.058 11.777h6.291L68.584 33.55h-6.446l11.92-21.773z" fill="#fff" fill-rule="evenodd" stroke="none"/><path d="M74.059 11.566h6.29L68.586 33.382H62.14L74.06 11.566h0z" stroke-miterlimit="10" transform="matrix(1.0001 0 0 .99809 -.008 .232)"/><path d="M116.463 11.87h-6.29l11.765 21.773h6.445l-11.92-21.773z" fill="#313390" fill-rule="evenodd" stroke="none"/><path d="M116.46 11.66h-6.29l11.765 21.815h6.444L116.46 11.66z" stroke-miterlimit="10" transform="matrix(1.0001 0 0 .99809 -.008 .232)"/><path d="M92.505 11.768h-6.29L97.98 33.544h6.447L92.505 11.768z" fill="#313390" fill-rule="evenodd" stroke="none"/><path d="M92.504 11.558h-6.29l11.765 21.817h6.446L92.504 11.558z" stroke-miterlimit="10" transform="matrix(1.0001 0 0 .99809 -.008 .232)"/><path d="M86.184 11.66h6.29L80.71 33.434h-6.446l11.92-21.774z" fill="#fff" fill-rule="evenodd" stroke="none"/><path d="M86.184 11.45h6.289L80.71 33.266h-6.445L86.184 11.45h0z" stroke-miterlimit="10" transform="matrix(1.0001 0 0 .99809 -.008 .232)"/><path d="M104.567 11.98h-6.291l11.766 21.775h6.444l-11.92-21.774z" fill="#313390" fill-rule="evenodd" stroke="none"/><path d="M104.564 11.771h-6.29l11.765 21.815h6.443l-11.918-21.815h0z" stroke-miterlimit="10" transform="matrix(1.0001 0 0 .99809 -.008 .232)"/><path d="M98.017 11.825h6.292L92.542 33.599h-6.444l11.92-21.774z" fill="#fff" fill-rule="evenodd" stroke="none"/><path d="M98.016 11.615h6.29L92.542 33.43h-6.443l11.918-21.815z" stroke-miterlimit="10" transform="matrix(1.0001 0 0 .99809 -.008 .232)"/><path d="M110.141 11.76h6.292l-11.765 21.776h-6.446l11.92-21.776z" fill="#fff" fill-rule="evenodd" stroke="none"/><path d="M110.139 11.55h6.29l-11.763 21.817h-6.445l11.918-21.817h0z" stroke-miterlimit="10" transform="matrix(1.0001 0 0 .99809 -.008 .232)"/><path d="M128.49 11.928h-6.29L133.966 33.7h6.444l-11.92-21.773z" fill="#313390" fill-rule="evenodd" stroke="none"/><path d="M128.486 11.718h-6.29l11.765 21.815h6.443l-11.918-21.815h0z" stroke-miterlimit="10" transform="matrix(1.0001 0 0 .99809 -.008 .232)"/><path d="M121.976 11.924h6.29L116.501 33.7h-6.446l11.921-21.775z" fill="#fff" fill-rule="evenodd" stroke="none"/><path d="M121.973 11.714h6.289L116.498 33.53h-6.445l11.92-21.816h0z" stroke-miterlimit="10" transform="matrix(1.0001 0 0 .99809 -.008 .232)"/><path d="M44.644 11.861h-6.29l11.765 21.774h6.444L44.644 11.861z" fill="#313390" fill-rule="evenodd" stroke="none"/><path d="M44.648 11.651h-6.29l11.765 21.816h6.443L44.648 11.65z" stroke-miterlimit="10" transform="matrix(1.0001 0 0 .99809 -.008 .232)"/><path d="M32.863 11.645h-6.29L38.337 33.42h6.445l-11.92-21.774z" fill="#313390" fill-rule="evenodd" stroke="none"/><path d="M32.868 11.435h-6.29L38.343 33.25h6.444L32.868 11.435h0z" stroke-miterlimit="10" transform="matrix(1.0001 0 0 .99809 -.008 .232)"/><path d="M50.22 11.642h6.29L44.746 33.416h-6.446l11.92-21.774z" fill="#fff" fill-rule="evenodd" stroke="none"/><path d="M50.223 11.431h6.29L44.75 33.247h-6.445l11.92-21.816h0z" stroke-miterlimit="10" transform="matrix(1.0001 0 0 .99809 -.008 .232)"/><path d="M20.95 11.645h-6.29L26.425 33.42h6.445L20.95 11.645z" fill="#313390" fill-rule="evenodd" stroke="none"/><path d="M20.957 11.435h-6.29L26.431 33.25h6.444L20.957 11.435z" stroke-miterlimit="10" transform="matrix(1.0001 0 0 .99809 -.008 .232)"/><path d="M38.336 11.645h6.291L32.861 33.42h-6.444l11.92-21.774z" fill="#fff" fill-rule="evenodd" stroke="none"/><path d="M38.34 11.435h6.29L32.867 33.25h-6.443L38.34 11.435h0z" stroke-miterlimit="10" transform="matrix(1.0001 0 0 .99809 -.008 .232)"/><path d="M26.58 11.645h6.29L21.106 33.42H14.66l11.92-21.774z" fill="#fff" fill-rule="evenodd" stroke="none"/><path d="M26.585 11.435h6.29L21.112 33.25h-6.445l11.918-21.815h0z" stroke-miterlimit="10" transform="matrix(1.0001 0 0 .99809 -.008 .232)"/><path d="M140.388 11.817h-6.291l11.767 21.775h6.444l-11.92-21.775z" fill="#313390" fill-rule="evenodd" stroke="none"/><path d="M140.383 11.606h-6.291l11.765 21.817h6.444l-11.918-21.817h0z" stroke-miterlimit="10" transform="matrix(1.0001 0 0 .99809 -.008 .232)"/><path d="M134.067 11.708h6.29l-11.765 21.774h-6.448l11.923-21.774z" fill="#fff" fill-rule="evenodd" stroke="none"/><path d="M134.063 11.498h6.289l-11.764 21.815h-6.447l11.921-21.815z" stroke-miterlimit="10" transform="matrix(1.0001 0 0 .99809 -.008 .232)"/><path d="M145.899 11.873h6.29l-11.763 21.774h-6.446l11.919-21.774z" fill="#fff" fill-rule="evenodd" stroke="none"/><path d="M145.893 11.663h6.29L140.42 33.48h-6.445l11.918-21.816h0z" stroke-miterlimit="10" transform="matrix(1.0001 0 0 .99809 -.008 .232)"/><path d="M68.888 209.763h-6.291l11.764 21.774h6.446l-11.92-21.774z" fill="#313390" fill-rule="evenodd" stroke="none"/><path d="M68.89 209.933h-6.291l11.763 21.815h6.446l-11.919-21.815h0z" stroke-miterlimit="10" transform="matrix(1.0001 0 0 .99809 -.008 .232)"/><path d="M56.991 209.874h-6.292l11.766 21.775h6.446l-11.92-21.775z" fill="#313390" fill-rule="evenodd" stroke="none"/><path d="M56.994 210.044h-6.292l11.765 21.816h6.445l-11.918-21.816h0z" stroke-miterlimit="10" transform="matrix(1.0001 0 0 .99809 -.008 .232)"/><path d="M62.565 209.656h6.292l-11.765 21.773h-6.447l11.92-21.773z" fill="#fff" fill-rule="evenodd" stroke="none"/><path d="M62.567 209.825h6.292L57.095 231.64h-6.447l11.919-21.815h0z" stroke-miterlimit="10" transform="matrix(1.0001 0 0 .99809 -.008 .232)"/><path d="M80.948 209.923h-6.29l11.765 21.773h6.445l-11.92-21.773z" fill="#313390" fill-rule="evenodd" stroke="none"/><path d="M80.949 210.093h-6.29l11.764 21.814h6.444L80.95 210.093z" stroke-miterlimit="10" transform="matrix(1.0001 0 0 .99809 -.008 .232)"/><path d="M74.399 209.82h6.29l-11.765 21.774H62.48l11.92-21.774z" fill="#fff" fill-rule="evenodd" stroke="none"/><path d="M74.4 209.99h6.29l-11.764 21.816H62.48L74.4 209.989z" stroke-miterlimit="10" transform="matrix(1.0001 0 0 .99809 -.008 .232)"/><path d="M116.804 209.912h-6.292l11.767 21.774h6.446l-11.92-21.774z" fill="#313390" fill-rule="evenodd" stroke="none"/><path d="M116.8 210.082h-6.29l11.765 21.815h6.446l-11.92-21.815z" stroke-miterlimit="10" transform="matrix(1.0001 0 0 .99809 -.008 .232)"/><path d="M92.847 209.811h-6.292l11.765 21.775h6.447l-11.92-21.775z" fill="#313390" fill-rule="evenodd" stroke="none"/><path d="M92.846 209.98h-6.291l11.763 21.817h6.447l-11.92-21.817h0z" stroke-miterlimit="10" transform="matrix(1.0001 0 0 .99809 -.008 .232)"/><path d="M86.524 209.704h6.292l-11.765 21.773h-6.446l11.919-21.773z" fill="#fff" fill-rule="evenodd" stroke="none"/><path d="M86.523 209.873h6.292l-11.764 21.815h-6.445l11.917-21.815z" stroke-miterlimit="10" transform="matrix(1.0001 0 0 .99809 -.008 .232)"/><path d="M104.908 210.024h-6.293l11.767 21.774h6.446l-11.92-21.774z" fill="#313390" fill-rule="evenodd" stroke="none"/><path d="M104.906 210.194h-6.293l11.766 21.816h6.445l-11.918-21.816z" stroke-miterlimit="10" transform="matrix(1.0001 0 0 .99809 -.008 .232)"/><path d="M98.357 209.869h6.292L92.882 231.64h-6.444l11.919-21.772z" fill="#fff" fill-rule="evenodd" stroke="none"/><path d="M98.355 210.038h6.291l-11.765 21.815h-6.444l11.918-21.815z" stroke-miterlimit="10" transform="matrix(1.0001 0 0 .99809 -.008 .232)"/><path d="M110.482 209.802h6.29L105.01 231.58h-6.447l11.92-21.777z" fill="#fff" fill-rule="evenodd" stroke="none"/><path d="M110.48 209.972h6.29l-11.762 21.818h-6.446l11.917-21.818z" stroke-miterlimit="10" transform="matrix(1.0001 0 0 .99809 -.008 .232)"/><path d="M128.657 210.038h-6.292l11.767 21.775h6.444l-11.92-21.775z" fill="#313390" fill-rule="evenodd" stroke="none"/><path d="M128.652 210.208h-6.29l11.765 21.816h6.443l-11.918-21.816h0z" stroke-miterlimit="10" transform="matrix(1.0001 0 0 .99809 -.008 .232)"/><path d="M122.316 209.968h6.29l-11.765 21.774h-6.446l11.921-21.774z" fill="#fff" fill-rule="evenodd" stroke="none"/><path d="M122.313 210.138h6.289l-11.764 21.815h-6.445l11.92-21.815z" stroke-miterlimit="10" transform="matrix(1.0001 0 0 .99809 -.008 .232)"/><path d="M44.984 209.905h-6.29l11.765 21.773h6.445l-11.92-21.773z" fill="#313390" fill-rule="evenodd" stroke="none"/><path d="M44.988 210.074h-6.29l11.764 21.816h6.445l-11.919-21.816z" stroke-miterlimit="10" transform="matrix(1.0001 0 0 .99809 -.008 .232)"/><path d="M32.994 209.946h-6.292l11.766 21.775h6.445l-11.919-21.775z" fill="#313390" fill-rule="evenodd" stroke="none"/><path d="M32.999 210.116h-6.291l11.765 21.817h6.444l-11.918-21.817h0z" stroke-miterlimit="10" transform="matrix(1.0001 0 0 .99809 -.008 .232)"/><path d="M50.56 209.685h6.29L45.086 231.46h-6.445l11.92-21.774z" fill="#fff" fill-rule="evenodd" stroke="none"/><path d="M50.564 209.854h6.289L45.09 231.67h-6.444l11.918-21.816h0z" stroke-miterlimit="10" transform="matrix(1.0001 0 0 .99809 -.008 .232)"/><path d="M140.553 209.928h-6.29l11.764 21.776h6.447l-11.92-21.776z" fill="#313390" fill-rule="evenodd" stroke="none"/><path d="M140.548 210.098h-6.29l11.763 21.817h6.446l-11.92-21.817z" stroke-miterlimit="10" transform="matrix(1.0001 0 0 .99809 -.008 .232)"/><path d="M134.233 209.82h6.29l-11.765 21.774h-6.448l11.923-21.774z" fill="#fff" fill-rule="evenodd" stroke="none"/><path d="M134.228 209.99h6.29l-11.764 21.816h-6.447l11.92-21.817h0z" stroke-miterlimit="10" transform="matrix(1.0001 0 0 .99809 -.008 .232)"/><path d="M146.065 209.984h6.29l-11.765 21.774h-6.445l11.92-21.774z" fill="#fff" fill-rule="evenodd" stroke="none"/><path d="M146.059 210.153h6.289l-11.764 21.817h-6.444l11.919-21.817z" stroke-miterlimit="10" transform="matrix(1.0001 0 0 .99809 -.008 .232)"/><path d="M38.568 209.726h6.292l-11.766 21.777H26.65l11.918-21.777z" fill="#fff" fill-rule="evenodd" stroke="none"/><path d="M38.573 209.896h6.29L33.1 231.714h-6.444l11.918-21.818h0z" stroke-miterlimit="10" transform="matrix(1.0001 0 0 .99809 -.008 .232)"/><path d="M20.988 209.978h-6.291l11.766 21.773h6.445l-11.92-21.773z" fill="#313390" fill-rule="evenodd" stroke="none"/><path d="M20.995 210.147h-6.291l11.764 21.816h6.445l-11.918-21.816z" stroke-miterlimit="10" transform="matrix(1.0001 0 0 .99809 -.008 .232)"/><path d="M26.563 209.756h6.292L21.09 231.532h-6.447l11.92-21.776z" fill="#fff" fill-rule="evenodd" stroke="none"/><path d="M26.569 209.926h6.29l-11.763 21.817h-6.447l11.92-21.817h0z" stroke-miterlimit="10" transform="matrix(1.0001 0 0 .99809 -.008 .232)"/><path d="M166.83 235.545c0 3.774-3.086 6.87-6.871 6.87H7.111c-3.775 0-6.861-3.096-6.861-6.87V7.12C.25 3.34 3.336.25 7.11.25H159.96c3.785 0 6.871 3.09 6.871 6.87v228.425h0z" stroke="#000" stroke-width=".5" stroke-linecap="butt" stroke-linejoin="miter" transform="matrix(1.0001 0 0 .99809 -.008 .232)"/></g></svg>