<svg width="163" height="45" viewBox="0 0 163 45" fill="none" xmlns="http://www.w3.org/2000/svg">
<path d="M67.964 31.66H62.888V23.992H60.368V26.512H57.776V23.992H55.256V31.66H50.036V13.732H55.112V16.18H57.704V18.808H60.188V16.288H62.78V13.732H67.964V31.66ZM88.081 31.516H69.937V13.408H88.081V15.928H75.157V21.076H82.897V23.74H75.157V28.888H88.081V31.516ZM107.55 31.66H102.474V29.212H99.9179V26.62H97.3619V23.992H94.8419V31.66H89.6219V13.732H94.6979V16.18H97.2899V18.736H99.8459V21.364H102.366V13.732H107.55V31.66ZM127.343 29.068H124.895V31.66H112.007V29.212H109.415V13.732H114.491V29.068H122.159V13.732H127.343V29.068Z" fill="white"/>
<path d="M162 1H33L1 44.5H162V1Z" stroke="white"/>
</svg>
